{"title":"Wanted - Hindi 2009 - BluRay  720p x264 AAC [ TaRa ].mkv","uid":15342172,"size":1509310934,"categoryP":"video","categoryS":"hd___movies","magnet":"?xt=urn:btih:b84fe6f8ef73080ab620f49c839cc992f244d894&amp;dn=Wanted+-+Hindi+2009+-+BluRay++720p+x264+AAC+%5B+TaRa+%5D.mkv&amp;tr=udp%3A%2F%2Ftracker.leechers-paradise.org%3A6969&amp;tr=udp%3A%2F%2Fzer0day.ch%3A1337&amp;tr=udp%3A%2F%2Fopen.demonii.com%3A1337&amp;tr=udp%3A%2F%2Ftracker.coppersurfer.tk%3A6969&amp;tr=udp%3A%2F%2Fexodus.desync.com%3A6969","seeders":0,"leechers":1,"uploader":"MdTaRa","files":1,"time":1468853718,"description":"========================================================================\r\nGeneral\r\nComplete name               Wanted - Hindi 2009 - BluRay  720p x264 AAC [ TaRa ].mkv\r\nFormat                      : Matroska\r\nFormat version              : Version 4 / Version 2\r\nFile size                   : 1.41 GiB\r\nDuration                    : 2h 33mn\r\nOverall bit rate mode       : Variable\r\nOverall bit rate            : 1 310 Kbps\r\n=======================================================================\r\nVideo\r\nID                          : 1\r\nFormat                      : AVC\r\nFormat/Info                 : Advanced Video Codec\r\nFormat profile              :   \r\nFormat settings, CABAC      : Yes\r\nFormat settings, ReFrames   : 3 frames\r\nCodec ID                    : V_MPEG4/ISO/AVC\r\nDuration                    : 2h 33mn\r\nBit rate mode               : Variable\r\nBit rate                    : 1 212 Kbps\r\nMaximum bit rate            : 40.0 Mbps\r\nWidth                       : 1 280 pixels\r\nHeight                      : 544 pixels\r\nDisplay aspect ratio        : 2.35:1\r\nFrame rate mode             : Constant\r\nFrame rate                  : 23.976 (24000/1001) fps\r\nColor space                 : YUV\r\nChroma subsampling          : 4:2:0\r\nBit depth                   : 8 bits\r\nScan type                   : Progressive\r\nBits/(Pixel*Frame)          : 0.073\r\nStream size                 : 1.30 GiB (92%)\r\nTitle                       : .....::::: TaRa :::::.....\r\nLanguage                    : Hindi\r\nDefault                     : Yes\r\nForced                      : No\r\n======================================================================\r\nAudio\r\nID                          : 2\r\nFormat                      : AAC\r\nFormat/Info                 : Advanced Audio Codec\r\nFormat profile              : LC\r\nCodec ID                    : A_AAC\r\nDuration                    : 2h 33mn\r\nBit rate                    : 96.0 Kbps\r\nChannel(s)                  : 2 channels\r\nChannel positions           : Front: L R\r\nSampling rate               : 44.1 KHz\r\nFrame rate                  : 43.066 fps (1024 spf)\r\nCompression mode            : Lossy\r\nDelay relative to video     : 10ms\r\nStream size                 : 105 MiB (7%)\r\nTitle                       : .....::::: TaRa :::::.....\r\nLanguage                    : Hindi\r\nDefault                     : Yes\r\nForced                      : No\r\n======================================================================== \nhttp://i.imgur.com/Jg74dqx.jpg","torrent":{"xt":"urn:btih:b84fe6f8ef73080ab620f49c839cc992f244d894","amp;dn":"Wanted+-+Hindi+2009+-+BluRay++720p+x264+AAC+%5B+TaRa+%5D.mkv","amp;tr":["udp%3A%2F%2Ftracker.leechers-paradise.org%3A6969","udp%3A%2F%2Fzer0day.ch%3A1337","udp%3A%2F%2Fopen.demonii.com%3A1337","udp%3A%2F%2Ftracker.coppersurfer.tk%3A6969","udp%3A%2F%2Fexodus.desync.com%3A6969"],"infoHash":"b84fe6f8ef73080ab620f49c839cc992f244d894","infoHashBuffer":{"type":"Buffer","data":[184,79,230,248,239,115,8,10,182,32,244,156,131,156,201,146,242,68,216,148]},"announce":[],"urlList":[]}}